<?xml version="1.0" encoding="UTF-8"?>
<svg width="14px" height="15px" viewBox="0 0 14 15" version="1.1" xmlns="http://www.w3.org/2000/svg" xmlns:xlink="http://www.w3.org/1999/xlink">
    <!-- Generator: Sketch 63 (92445) - https://sketch.com -->
    <title>Fill 1</title>
    <desc>Created with Sketch.</desc>
    <g id="设计稿" stroke="none" stroke-width="1" fill="none" fill-rule="evenodd">
        <g id="Gen" transform="translate(-1174.000000, -145.000000)" fill="#575B69" stroke="#575B69" stroke-width="0.2">
            <g id="编组-4" transform="translate(1163.000000, 137.000000)">
                <g id="编组-3备份">
                    <g id="编组-2" transform="translate(12.000000, 8.000000)">
                        <path d="M2.27373675e-13,14 L12,14 L12,13.1333457 L2.27373675e-13,13.1333457 L2.27373675e-13,14 Z M7.39862249,1.12681837 L11.0351632,4.80378934 C11.1155369,4.88503977 11.160721,4.99526951 11.160721,5.11025578 C11.160721,5.22517435 11.1155369,5.33540409 11.0351632,5.41667144 L4.36824167,12.1577821 C4.2878679,12.2390494 4.1788502,12.2847359 4.06512826,12.2847359 C3.95147328,12.2847359 3.84245558,12.2390494 3.76209855,12.1577821 L0.125557861,8.48087881 C0.0451840888,8.39961146 2.27373675e-13,8.28939864 2.27373675e-13,8.17448008 C2.27373675e-13,8.05956151 0.0451840888,7.94933177 0.125557861,7.86799671 L6.79247936,1.12695379 C6.87285313,1.04568644 6.98187084,1 7.09559278,1 C7.20924775,1 7.31826546,1.04568644 7.39862249,1.12695379 L7.39862249,1.12681837 Z M7.09559278,2.04604842 L1.03468048,8.17448008 L4.06512826,11.238552 L10.1260406,5.11025578 L7.09565974,2.04604842 L7.09559278,2.04604842 Z M2.85297593,6.33588456 L5.88337349,9.40004115 L5.27734755,10.0128555 L2.2468328,6.94871588 L2.85297593,6.33588456 Z" id="Fill-1"></path>
                    </g>
                </g>
            </g>
        </g>
    </g>
</svg>