<?xml version="1.0" encoding="UTF-8"?>
<svg width="14px" height="14px" viewBox="0 0 14 14" version="1.1" xmlns="http://www.w3.org/2000/svg" xmlns:xlink="http://www.w3.org/1999/xlink">
    <!-- Generator: Sketch 63 (92445) - https://sketch.com -->
    <title>fuzhi</title>
    <desc>Created with Sketch.</desc>
    <g id="设计稿" stroke="none" stroke-width="1" fill="none" fill-rule="evenodd">
        <g id="Gen" transform="translate(-1290.000000, -419.000000)" fill="#575B69">
            <g id="编组-6" transform="translate(1163.000000, 409.000000)">
                <g id="编组-4备份-2" transform="translate(108.000000, 0.000000)">
                    <g id="编组-3备份">
                        <g id="编组-2" transform="translate(19.000000, 8.000000)">
                            <path d="M5.0637673,9.4421869 L5.0637673,6.96930728 L6.05292591,6.96930728 L6.05292591,9.4421869 L8.52573791,9.4421869 L8.52573791,10.4312779 L6.05292591,10.4312779 L6.05292591,12.9040899 L5.0637673,12.9040899 L5.0637673,10.4312779 L2.5909553,10.4312779 L2.5909553,9.4421869 L5.0637673,9.4421869 Z M3.01486834,4.44148944 L11.0534871,4.44148944 L11.0534871,12.4801768 L12.0583466,12.4801768 L12.0583466,3.43669859 L3.01486834,3.43669859 L3.01486834,4.44148944 Z M2.04744417,4.44755238 L2.04744417,2.44756815 L13.047477,2.44756815 L13.047477,13.4475327 L11.0474245,13.4475327 L11.0474245,15.4475682 L0.0474770396,15.4475682 L0.0474770396,4.44755238 L2.04744417,4.44755238 Z M1.03660747,14.4584377 L10.0800857,14.4584377 L10.0800857,5.41495946 L1.03660747,5.41495946 L1.03660747,14.4584377 Z" id="fuzhi"></path>
                        </g>
                    </g>
                </g>
            </g>
        </g>
    </g>
</svg>