<?xml version="1.0" encoding="UTF-8"?>
<svg width="12px" height="12px" viewBox="0 0 12 12" version="1.1" xmlns="http://www.w3.org/2000/svg" xmlns:xlink="http://www.w3.org/1999/xlink">
    <!-- Generator: Sketch 63 (92445) - https://sketch.com -->
    <title>渠道活码备份</title>
    <desc>Created with Sketch.</desc>
    <g id="设计稿" stroke="none" stroke-width="1" fill="none" fill-rule="evenodd">
        <g id="Tool" transform="translate(-30.000000, -84.000000)" fill-rule="nonzero">
            <g id="渠道活码备份" transform="translate(28.000000, 82.000000)">
                <rect id="矩形" fill="#000000" opacity="0" x="0" y="0" width="16" height="16"></rect>
                <path d="M6,8.5 C6.55228475,8.5 7,8.94771525 7,9.5 L7,12.5 C7,13.0522847 6.55228475,13.5 6,13.5 L3,13.5 C2.44771525,13.5 2,13.0522847 2,12.5 L2,9.5 C2,8.94771525 2.44771525,8.5 3,8.5 L6,8.5 Z M6,9.5 L3,9.5 L3,12.5 L6,12.5 L6,9.5 Z M6,2 C6.55228475,2 7,2.44771525 7,3 L7,6 C7,6.55228475 6.55228475,7 6,7 L3,7 C2.44771525,7 2,6.55228475 2,6 L2,3 C2,2.44771525 2.44771525,2 3,2 L6,2 Z M13,2 C13.5522847,2 14,2.44771525 14,3 L14,6 C14,6.55228475 13.5522847,7 13,7 L10,7 C9.44771525,7 9,6.55228475 9,6 L9,3 C9,2.44771525 9.44771525,2 10,2 L13,2 Z M6,3 L3,3 L3,6 L6,6 L6,3 Z M13,3 L10,3 L10,6 L13,6 L13,3 Z" id="形状" fill="#383838"></path>
                <polyline id="路径-2" fill="#DDDDDD" points="3 9.5 3 12.4842322 6.01548308 12.4842322 6.01548308 9.5"></polyline>
                <path d="M9.5,9.5 C9.77614237,9.5 10,9.72385763 10,10 L10,13 C10,13.2761424 9.77614237,13.5 9.5,13.5 C9.22385763,13.5 9,13.2761424 9,13 L9,10 C9,9.72385763 9.22385763,9.5 9.5,9.5 Z M13.5,8.5 C13.7761424,8.5 14,8.72385763 14,9 L14,13 C14,13.2761424 13.7761424,13.5 13.5,13.5 C13.2238576,13.5 13,13.2761424 13,13 L13,9 C13,8.72385763 13.2238576,8.5 13.5,8.5 Z M11.5,10.5 C11.7761424,10.5 12,10.7238576 12,11 L12,13 C12,13.2761424 11.7761424,13.5 11.5,13.5 C11.2238576,13.5 11,13.2761424 11,13 L11,11 C11,10.7238576 11.2238576,10.5 11.5,10.5 Z" id="形状" fill="#3388FF"></path>
            </g>
        </g>
    </g>
</svg>