<?xml version="1.0" encoding="UTF-8"?>
<svg width="14px" height="14px" viewBox="0 0 14 14" version="1.1" xmlns="http://www.w3.org/2000/svg" xmlns:xlink="http://www.w3.org/1999/xlink">
    <!-- Generator: Sketch 63 (92445) - https://sketch.com -->
    <title>delete</title>
    <desc>Created with Sketch.</desc>
    <g id="设计稿" stroke="none" stroke-width="1" fill="none" fill-rule="evenodd">
        <g id="Gen" transform="translate(-1180.000000, -418.000000)" fill-rule="nonzero">
            <g id="编组-6" transform="translate(1163.000000, 409.000000)">
                <g id="编组-4备份">
                    <g id="编组-3备份">
                        <g id="编组-2" transform="translate(14.000000, 6.000000)">
                            <g id="delete">
                                <rect id="矩形" fill="#000000" opacity="0" x="0" y="0" width="20" height="20"></rect>
                                <path d="M16.2314453,5.92695312 L12.9710938,5.92695312 L12.9710938,3.75351562 L7.01210938,3.75351562 L7.01210938,5.92695313 L3.75175781,5.92695313 L3.75175781,6.94257813 L5.16992188,6.94257813 L5.16992188,16.23125 L14.8132813,16.23125 L14.8132813,6.94257812 L16.2314453,6.94257812 L16.2314453,5.92695312 L16.2314453,5.92695312 Z M8.02773437,4.76914063 L11.9554687,4.76914063 L11.9554687,5.92695312 L8.02773437,5.92695312 L8.02773437,4.76914063 Z M13.7976562,15.215625 L6.18554688,15.215625 L6.18554688,6.94257813 L13.7976562,6.94257813 L13.7976562,15.215625 Z" id="形状" fill="#575B69"></path>
                                <path d="M9.48125,8.76542969 L10.496875,8.76542969 L10.496875,13.7542969 L9.48125,13.7542969 L9.48125,8.76542969 Z M7.33496094,8.76542969 L8.35058594,8.76542969 L8.35058594,13.7542969 L7.33496094,13.7542969 L7.33496094,8.76542969 Z M11.6277344,8.76542969 L12.6433594,8.76542969 L12.6433594,13.7542969 L11.6277344,13.7542969 L11.6277344,8.76542969 Z" id="形状" fill="#575B69"></path>
                            </g>
                        </g>
                    </g>
                </g>
            </g>
        </g>
    </g>
</svg>