<?xml version="1.0" encoding="UTF-8"?>
<svg width="12px" height="12px" viewBox="0 0 12 12" version="1.1" xmlns="http://www.w3.org/2000/svg" xmlns:xlink="http://www.w3.org/1999/xlink">
    <!-- Generator: Sketch 63 (92445) - https://sketch.com -->
    <title>Monotone备份 20</title>
    <desc>Created with Sketch.</desc>
    <g id="设计稿" stroke="none" stroke-width="1" fill="none" fill-rule="evenodd">
        <g id="Gen" transform="translate(-30.000000, -144.000000)" fill="#FFFFFF" fill-rule="nonzero">
            <g id="Monotone备份-20" transform="translate(30.000000, 144.000000)">
                <path d="M9,5 L9,6 L3.47368421,6 C2.66128418,6 2,6.6701013 2,7.5 C2,8.30025946 2.61489307,8.9519318 3.38724284,8.99745908 L3.47368421,9 L8.75,9 L8.75,10 L3.47368421,10 C2.10601286,10 1,8.8792403 1,7.5 C1,6.15705549 2.04856759,5.05916636 3.36626916,5.00231273 L3.47368421,5 L9,5 Z" id="路径"></path>
                <path d="M10,1.5 L10,2.5 L5.21052632,2.5 C4.54455645,2.5 4,3.05712313 4,3.75 C4,4.41516179 4.50186322,4.95521294 5.1312198,4.99735278 L5.21052632,5 L10.5,5 L10.5,6 L5.21052632,6 C3.98710099,6 3,4.99011976 3,3.75 C3,2.54531224 3.93150101,1.55789539 5.10625755,1.50245499 L5.21052632,1.5 L10,1.5 Z" id="路径备份" transform="translate(6.750000, 3.750000) rotate(-180.000000) translate(-6.750000, -3.750000) "></path>
                <path d="M2,0 C0.8954305,0 0,0.8954305 0,2 C0,3.1045695 0.8954305,4 2,4 C3.1045695,4 4,3.1045695 4,2 C4,0.8954305 3.1045695,0 2,0 Z M2,1 C2.55228475,1 3,1.44771525 3,2 C3,2.55228475 2.55228475,3 2,3 C1.44771525,3 1,2.55228475 1,2 C1,1.44771525 1.44771525,1 2,1 Z" id="椭圆形"></path>
                <path d="M10,7.5 C8.8954305,7.5 8,8.3954305 8,9.5 C8,10.6045695 8.8954305,11.5 10,11.5 C11.1045695,11.5 12,10.6045695 12,9.5 C12,8.3954305 11.1045695,7.5 10,7.5 Z M10,8.5 C10.5522847,8.5 11,8.94771525 11,9.5 C11,10.0522847 10.5522847,10.5 10,10.5 C9.44771525,10.5 9,10.0522847 9,9.5 C9,8.94771525 9.44771525,8.5 10,8.5 Z" id="椭圆形备份"></path>
            </g>
        </g>
    </g>
</svg>