<?xml version="1.0" encoding="UTF-8"?>
<svg width="12px" height="12px" viewBox="0 0 12 12" version="1.1" xmlns="http://www.w3.org/2000/svg" xmlns:xlink="http://www.w3.org/1999/xlink">
    <!-- Generator: Sketch 63 (92445) - https://sketch.com -->
    <title>Monotone备份 20</title>
    <desc>Created with Sketch.</desc>
    <g id="设计稿" stroke="none" stroke-width="1" fill="none" fill-rule="evenodd">
        <g id="Dashboard" transform="translate(-30.000000, -144.000000)">
            <g id="icon/线索" transform="translate(28.000000, 142.000000)">
                <g id="客户档案" stroke-width="1" fill-rule="evenodd" transform="translate(-1.500000, 16.000000)"></g>
                <path d="M11,7 L11,8 L5.47368421,8 C4.66128418,8 4,8.6701013 4,9.5 C4,10.3002595 4.61489307,10.9519318 5.38724284,10.9974591 L5.47368421,11 L10.75,11 L10.75,12 L5.47368421,12 C4.10601286,12 3,10.8792403 3,9.5 C3,8.15705549 4.04856759,7.05916636 5.36626916,7.00231273 L5.47368421,7 L11,7 Z" id="路径" fill="#383838" fill-rule="nonzero"></path>
                <path d="M12,3.5 L12,4.5 L7.21052632,4.5 C6.54455645,4.5 6,5.05712313 6,5.75 C6,6.41516179 6.50186322,6.95521294 7.1312198,6.99735278 L7.21052632,7 L12.5,7 L12.5,8 L7.21052632,8 C5.98710099,8 5,6.99011976 5,5.75 C5,4.54531224 5.93150101,3.55789539 7.10625755,3.50245499 L7.21052632,3.5 L12,3.5 Z" id="路径备份" fill="#383838" fill-rule="nonzero" transform="translate(8.750000, 5.750000) rotate(-180.000000) translate(-8.750000, -5.750000) "></path>
                <path d="M4,2 C2.8954305,2 2,2.8954305 2,4 C2,5.1045695 2.8954305,6 4,6 C5.1045695,6 6,5.1045695 6,4 C6,2.8954305 5.1045695,2 4,2 Z M4,3 C4.55228475,3 5,3.44771525 5,4 C5,4.55228475 4.55228475,5 4,5 C3.44771525,5 3,4.55228475 3,4 C3,3.44771525 3.44771525,3 4,3 Z" id="椭圆形" fill="#3388FF" fill-rule="nonzero"></path>
                <path d="M12,9.5 C10.8954305,9.5 10,10.3954305 10,11.5 C10,12.6045695 10.8954305,13.5 12,13.5 C13.1045695,13.5 14,12.6045695 14,11.5 C14,10.3954305 13.1045695,9.5 12,9.5 Z M12,10.5 C12.5522847,10.5 13,10.9477153 13,11.5 C13,12.0522847 12.5522847,12.5 12,12.5 C11.4477153,12.5 11,12.0522847 11,11.5 C11,10.9477153 11.4477153,10.5 12,10.5 Z" id="椭圆形备份" fill="#3388FF" fill-rule="nonzero"></path>
            </g>
        </g>
    </g>
</svg>