<?xml version="1.0" encoding="UTF-8"?>
<svg width="2px" height="10px" viewBox="0 0 2 10" version="1.1" xmlns="http://www.w3.org/2000/svg" xmlns:xlink="http://www.w3.org/1999/xlink">
    <!-- Generator: Sketch 63 (92445) - https://sketch.com -->
    <title>更多</title>
    <desc>Created with Sketch.</desc>
    <g id="设计稿" stroke="none" stroke-width="1" fill="none" fill-rule="evenodd">
        <g id="Gen" transform="translate(-1279.000000, -24.000000)" fill="#000000" fill-rule="nonzero">
            <g id="编组-7" transform="translate(1252.000000, 8.000000)">
                <g id="更多" transform="translate(28.000000, 21.000000) rotate(90.000000) translate(-28.000000, -21.000000) translate(20.000000, 13.000000)">
                    <rect id="矩形" opacity="0" x="0" y="0" width="16" height="16"></rect>
                    <path d="M3.41953125,8.0075 C3.41953125,8.56340912 3.87018463,9.0140625 4.42609375,9.0140625 C4.98200287,9.0140625 5.43265625,8.56340912 5.43265625,8.0075 C5.43265625,7.45159088 4.98200287,7.0009375 4.42609375,7.0009375 C3.87018463,7.0009375 3.41953125,7.45159088 3.41953125,8.0075 Z M6.994375,8.0075 C6.994375,8.36711015 7.18622472,8.69940364 7.49765624,8.87920872 C7.80908777,9.0590138 8.19278723,9.0590138 8.50421876,8.87920872 C8.81565028,8.69940364 9.0075,8.36711015 9.0075,8.0075 C9.0075,7.45159088 8.55684662,7.0009375 8.0009375,7.0009375 C7.44502838,7.0009375 6.994375,7.45159088 6.994375,8.0075 L6.994375,8.0075 Z M10.5690625,8.0075 C10.5690625,8.56340912 11.0197159,9.0140625 11.575625,9.0140625 C12.1315341,9.0140625 12.5821875,8.56340912 12.5821875,8.0075 C12.5821875,7.45159088 12.1315341,7.0009375 11.575625,7.0009375 C11.0197159,7.0009375 10.5690625,7.45159088 10.5690625,8.0075 Z" id="形状"></path>
                </g>
            </g>
        </g>
    </g>
</svg>