<?xml version="1.0" encoding="UTF-8"?>
<svg width="12px" height="12px" viewBox="0 0 12 12" version="1.1" xmlns="http://www.w3.org/2000/svg" xmlns:xlink="http://www.w3.org/1999/xlink">
    <!-- Generator: Sketch 63 (92445) - https://sketch.com -->
    <title>名片备份</title>
    <desc>Created with Sketch.</desc>
    <g id="设计稿" stroke="none" stroke-width="1" fill="none" fill-rule="evenodd">
        <g id="Dashboard" transform="translate(-30.000000, -264.000000)" fill-rule="nonzero">
            <g id="名片备份" transform="translate(28.000000, 262.000000)">
                <rect id="矩形" fill="#000000" opacity="0" x="0" y="0" width="16" height="16"></rect>
                <path d="M11,9.5 C11.2761424,9.5 11.5,9.72385763 11.5,10 C11.5,10.2761424 11.2761424,10.5 11,10.5 L8.5,10.5 C8.22385763,10.5 8,10.2761424 8,10 C8,9.72385763 8.22385763,9.5 8.5,9.5 L11,9.5 Z M11,7.5 C11.2761424,7.5 11.5,7.72385763 11.5,8 C11.5,8.27614237 11.2761424,8.5 11,8.5 L8.5,8.5 C8.22385763,8.5 8,8.27614237 8,8 C8,7.72385763 8.22385763,7.5 8.5,7.5 L11,7.5 Z M5.5,4.5 C6.32842712,4.5 7,5.17157288 7,6 C7,6.82842712 6.32842712,7.5 5.5,7.5 C4.67157288,7.5 4,6.82842712 4,6 C4,5.17157288 4.67157288,4.5 5.5,4.5 Z M5.5,5.5 C5.22385763,5.5 5,5.72385763 5,6 C5,6.27614237 5.22385763,6.5 5.5,6.5 C5.77614237,6.5 6,6.27614237 6,6 C6,5.72385763 5.77614237,5.5 5.5,5.5 Z" id="形状" fill="#3388FF"></path>
                <path d="M12,2 C13.1045695,2 14,2.8954305 14,4 L14,11.5 C14,12.6045695 13.1045695,13.5 12,13.5 L4,13.5 C2.8954305,13.5 2,12.6045695 2,11.5 L2,4 C2,2.8954305 2.8954305,2 4,2 L12,2 Z M11.9999999,2.99999995 L3.99999995,2.99999995 C3.47668762,2.99983439 3.0417484,3.40316148 3.0025,3.925 L2.99999995,3.99999995 L2.99999995,11.4999999 C2.99983439,12.0233124 3.40316148,12.4582516 3.925,12.4975 L3.99999995,12.4999999 L11.9999999,12.4999999 C12.5233124,12.5001656 12.9582516,12.0968385 12.9975,11.575 L12.9999999,11.4999999 L12.9999999,3.99999995 C13.0001656,3.47668762 12.5968385,3.0417484 12.075,3.0025 L11.9999999,2.99999995 Z" id="形状" fill="#383838"></path>
            </g>
        </g>
    </g>
</svg>