<?xml version="1.0" encoding="UTF-8"?>
<svg width="32px" height="32px" viewBox="0 0 32 32" version="1.1" xmlns="http://www.w3.org/2000/svg" xmlns:xlink="http://www.w3.org/1999/xlink">
    <!-- Generator: Sketch 63 (92445) - https://sketch.com -->
    <title>编组 11</title>
    <desc>Created with Sketch.</desc>
    <defs>
        <linearGradient x1="0.239787068%" y1="50%" x2="100%" y2="50%" id="linearGradient-1">
            <stop stop-color="#FBCA40" offset="0%"></stop>
            <stop stop-color="#FA930A" offset="100%"></stop>
        </linearGradient>
    </defs>
    <g id="设计稿" stroke="none" stroke-width="1" fill="none" fill-rule="evenodd">
        <g id="Dashboard" transform="translate(-1020.000000, -258.000000)">
            <g id="编组-11" transform="translate(1020.000000, 258.000000)">
                <rect id="矩形备份-7" fill="#F9EEE6" opacity="0.695701236" x="0" y="0" width="32" height="32" rx="8"></rect>
                <path d="M16.2926829,11.6097561 C12.8693898,11.6097561 10.097561,14.3816044 10.097561,17.804878 C10.097561,21.2281517 12.8693898,24 16.2926829,24 C19.7159566,24 22.4878049,21.2281517 22.4878049,17.804878 C22.4878049,14.3879999 19.7159566,11.6097561 16.2926829,11.6097561 L16.2926829,11.6097561 Z M19.4168332,17.2739854 L18.2000729,18.4586564 L18.4867881,20.1336768 C18.5822821,20.6941623 18.2638068,20.9425259 17.7478088,20.6686317 L16.2443138,19.8789354 L14.7408966,20.6686317 C14.2376571,20.9361481 13.9000441,20.7069178 14.0019173,20.1336768 L14.2886326,18.4586564 L13.0718723,17.2739854 C12.6641267,16.8727109 12.7788361,16.4842113 13.3521305,16.401417 L15.0339328,16.1594311 L15.7856705,14.6308272 C16.0404896,14.121325 16.4418366,14.1085695 16.7030349,14.6308272 L17.4546949,16.1594311 L19.1365749,16.401417 C19.6971692,16.4842113 19.8308802,16.8664109 19.4168332,17.2739854 Z M22.048781,8 L18.2311708,8 C18.0275776,8 17.8621545,8.14797409 17.8112417,8.34108116 L16.6341463,10.6901772 C16.6341463,10.6901772 19.1537795,10.8446746 20.6425875,12.2926829 L22.3987219,8.70796101 C22.4496542,8.63710793 22.4878049,8.54701881 22.4878049,8.45052422 C22.4878049,8.19947324 22.2905248,8 22.048781,8 Z M15.8536585,10.6941727 L14.6766098,8.34158774 C14.6256964,8.14827258 14.4602716,8 14.2566182,8 L10.4390477,8 C10.1972043,8 10,8.1997695 10,8.44473902 C10,8.54143596 10.0381705,8.62522423 10.0890838,8.70255816 L11.8451581,12.2926829 C13.334078,10.8488996 15.8536585,10.6941727 15.8536585,10.6941727 Z" id="dengji" fill="url(#linearGradient-1)"></path>
            </g>
        </g>
    </g>
</svg>