<?xml version="1.0" encoding="UTF-8"?>
<svg width="12px" height="12px" viewBox="0 0 12 12" version="1.1" xmlns="http://www.w3.org/2000/svg" xmlns:xlink="http://www.w3.org/1999/xlink">
    <!-- Generator: Sketch 63 (92445) - https://sketch.com -->
    <title>提醒</title>
    <desc>Created with Sketch.</desc>
    <g id="设计稿" stroke="none" stroke-width="1" fill="none" fill-rule="evenodd">
        <g id="Gen" transform="translate(-1314.000000, -23.000000)" fill="#000000" fill-rule="nonzero">
            <g id="编组-7" transform="translate(1252.000000, 8.000000)">
                <g id="提醒" transform="translate(60.000000, 13.000000)">
                    <rect id="矩形" opacity="0" x="0" y="0" width="16" height="16"></rect>
                    <path d="M12.2015625,10.8515625 L12.2015625,7.2203125 C12.2015625,6.1140625 11.7703125,5.0734375 10.9875,4.290625 C10.303125,3.60625 9.421875,3.190625 8.4703125,3.096875 L8.4703125,2.5125 L7.5328125,2.5125 L7.5328125,3.109375 C6.625,3.2234375 5.784375,3.6328125 5.1265625,4.290625 C4.34375,5.0734375 3.9125,6.1140625 3.9125,7.2203125 L3.9125,10.853125 L2.528125,10.853125 L2.528125,11.790625 L13.4734375,11.790625 L13.4734375,10.853125 L12.2015625,10.853125 L12.2015625,10.8515625 Z M4.8515625,7.2203125 C4.8515625,5.453125 6.2890625,4.0140625 8.0578125,4.0140625 C9.825,4.0140625 11.2640625,5.4515625 11.2640625,7.2203125 L11.2640625,10.853125 L4.8515625,10.853125 L4.8515625,7.2203125 Z M6.4546875,12.5609375 L9.6609375,12.5609375 L9.6609375,13.4984375 L6.4546875,13.4984375 L6.4546875,12.5609375 Z" id="形状"></path>
                </g>
            </g>
        </g>
    </g>
</svg>