<?xml version="1.0" encoding="UTF-8"?>
<svg width="14px" height="12px" viewBox="0 0 14 12" version="1.1" xmlns="http://www.w3.org/2000/svg" xmlns:xlink="http://www.w3.org/1999/xlink">
    <!-- Generator: Sketch 63 (92445) - https://sketch.com -->
    <title>形状</title>
    <desc>Created with Sketch.</desc>
    <g id="设计稿" stroke="none" stroke-width="1" fill="none" fill-rule="evenodd">
        <g id="Gen" transform="translate(-1294.000000, -147.000000)" fill="#FFFFFF" fill-rule="nonzero">
            <g id="编组-4" transform="translate(1163.000000, 137.000000)">
                <g id="编组-3" transform="translate(108.000000, 0.000000)">
                    <g id="编组-2" transform="translate(20.000000, 6.000000)">
                        <g id="保存">
                            <path d="M13.5480469,4.38261719 L13.5480469,4.37851562 L6.47128906,4.37851562 L6.47128906,4.38261719 L3.71972656,4.38261719 L3.71972656,15.6369141 L16.2996094,15.6369141 L16.2996094,4.38261719 L13.5480469,4.38261719 Z M7.64316406,5.55449219 L12.3761719,5.55449219 L12.3761719,9.44257812 L7.64316406,9.44257812 L7.64316406,5.55449219 Z M15.1277344,14.4650391 L4.89160156,14.4650391 L4.89160156,5.55449219 L6.47128906,5.55449219 L6.47128906,10.6144531 L13.5480469,10.6144531 L13.5480469,5.55449219 L15.1277344,5.55449219 L15.1277344,14.4650391 Z M10.3603516,6.53144531 L11.5322266,6.53144531 L11.5322266,8.46152344 L10.3603516,8.46152344 L10.3603516,6.53144531 Z" id="形状"></path>
                        </g>
                    </g>
                </g>
            </g>
        </g>
    </g>
</svg>