<?xml version="1.0" encoding="UTF-8"?>
<svg width="32px" height="32px" viewBox="0 0 32 32" version="1.1" xmlns="http://www.w3.org/2000/svg" xmlns:xlink="http://www.w3.org/1999/xlink">
    <!-- Generator: Sketch 63 (92445) - https://sketch.com -->
    <title>编组 10</title>
    <desc>Created with Sketch.</desc>
    <defs>
        <linearGradient x1="2.96601576%" y1="50%" x2="99.2596167%" y2="50%" id="linearGradient-1">
            <stop stop-color="#2BB76F" stop-opacity="0.701515038" offset="0%"></stop>
            <stop stop-color="#2FB26E" offset="100%"></stop>
        </linearGradient>
    </defs>
    <g id="设计稿" stroke="none" stroke-width="1" fill="none" fill-rule="evenodd">
        <g id="Dashboard" transform="translate(-1020.000000, -189.000000)">
            <g id="编组-10" transform="translate(1020.000000, 189.000000)">
                <rect id="矩形备份-6" fill="#DCF8E8" opacity="0.776151385" x="0" y="0" width="32" height="32" rx="8"></rect>
                <path d="M9.00032331,11.692347 C9.00032331,9.65318082 12.3064772,8 16.3846053,8 C20.4631375,8 23.7692308,9.65318082 23.7692308,11.692347 C23.7692308,13.7314346 20.4631375,15.3846154 16.3846053,15.3846154 C12.30577,15.3846154 9,13.7314346 9,11.692347 L9.00032331,11.692347 Z M16.3846154,16.5043457 C19.4006997,16.5043457 21.9950196,15.5382305 23.1415551,14.1538462 C23.5451331,14.6416096 23.7692308,15.1806115 23.7692308,15.7478271 C23.7692308,17.9265864 20.4631531,19.6923077 16.3846154,19.6923077 C12.3057543,19.6923077 9,17.9265864 9,15.7478271 C9,15.1806115 9.22415832,14.6416096 9.62775647,14.1542453 C10.774191,15.5382305 13.368228,16.5043457 16.3846154,16.5043457 Z M16.3846154,20.8903213 C19.4404876,20.8903213 22.0625116,19.8891647 23.1855866,18.4615385 C23.561319,18.9395638 23.7692308,19.464753 23.7692308,20.0164627 C23.7692308,22.2167455 20.4631531,24 16.3846154,24 C12.3057543,24 9,22.2167455 9,20.0164627 C9,19.464753 9.20791175,18.9395638 9.5837048,18.4615385 C10.7067192,19.8891647 13.328824,20.8903213 16.3846154,20.8903213 Z" id="jifen-(1)" fill="url(#linearGradient-1)"></path>
            </g>
        </g>
    </g>
</svg>