<?xml version="1.0" encoding="UTF-8"?>
<svg width="12px" height="12px" viewBox="0 0 12 12" version="1.1" xmlns="http://www.w3.org/2000/svg" xmlns:xlink="http://www.w3.org/1999/xlink">
    <!-- Generator: Sketch 63 (92445) - https://sketch.com -->
    <title>职位管理轮廓化</title>
    <desc>Created with Sketch.</desc>
    <g id="设计稿" stroke="none" stroke-width="1" fill="none" fill-rule="evenodd">
        <g id="Tool" transform="translate(-30.000000, -204.000000)" fill-rule="nonzero">
            <g id="职位管理轮廓化" transform="translate(28.000000, 202.000000)">
                <rect id="矩形" fill="#000000" opacity="0" x="0" y="0" width="16" height="16"></rect>
                <path d="M10,7 C10.2534874,7.00003344 10.466842,7.18975356 10.4965,7.4415 L10.5,7.5 L10.5,8 L13.5,8 C13.7645467,8.00029343 13.9830824,8.20660523 13.998586,8.47069741 C14.0140897,8.73478958 13.8211952,8.96525459 13.5585,8.9965 L13.5,9 L10.5,9 L10.5,9.5 C10.4997066,9.7645467 10.2933948,9.98308239 10.0293026,9.99858605 C9.76521042,10.0140897 9.53474541,9.82119519 9.5035,9.5585 L9.5,9.5 L9.5,9 L6.5,9 L6.5,9.5 C6.49970657,9.7645467 6.29339477,9.98308239 6.02930259,9.99858605 C5.76521042,10.0140897 5.53474541,9.82119519 5.5035,9.5585 L5.5,9.5 L5.5,9 L2.5,9 C2.2354533,8.99970657 2.01691761,8.79339477 2.00141395,8.52930259 C1.9859103,8.26521042 2.17880481,8.03474541 2.4415,8.0035 L2.5,8 L5.5,8 L5.5,7.5 C5.50029343,7.2354533 5.70660523,7.01691761 5.97069741,7.00141395 C6.23478958,6.9859103 6.46525459,7.17880481 6.4965,7.4415 L6.5,7.5 L6.5,8 L9.5,8 L9.5,7.5 C9.5,7.22385763 9.72385763,7 10,7 Z" id="路径" fill="#FFFFFF"></path>
                <path d="M9.75,2 C10.9735,2 11.945,3.071 11.9975,4.3865 L12,4.5 C13.1045695,4.5 14,5.3954305 14,6.5 L14,11.5 C14,12.6045695 13.1045695,13.5 12,13.5 L4,13.5 C2.8954305,13.5 2,12.6045695 2,11.5 L2,6.5 C2,5.3954305 2.8954305,4.5 4,4.5 C4,3.171 4.937,2.063 6.146,2.0025 L6.25,2 L9.75,2 Z M11.9999999,5.49999995 L3.99999995,5.49999995 C3.47668762,5.49983439 3.0417484,5.90316148 3.0025,6.425 L2.99999995,6.49999995 L2.99999995,11.4999999 C2.99983439,12.0233124 3.40316148,12.4582516 3.925,12.4975 L3.99999995,12.4999999 L11.9999999,12.4999999 C12.5233124,12.5001656 12.9582516,12.0968385 12.9975,11.575 L12.9999999,11.4999999 L12.9999999,6.49999995 C13.0001656,5.97668762 12.5968385,5.5417484 12.075,5.5025 L11.9999999,5.49999995 Z M9.75,3 L6.25,3 C5.6005,3 5.043,3.61 5.0025,4.407 L5,4.5 L11,4.5 C11,3.689 10.4665,3.049 9.8245,3.0025 L9.75,3 Z" id="形状" fill="#FFFFFF"></path>
            </g>
        </g>
    </g>
</svg>